<svg width="139" height="180" viewBox="0 0 139 180" fill="none" xmlns="http://www.w3.org/2000/svg">
<path d="M71.168 179.201C40.448 179.201 17.408 169.985 0 151.809L19.456 105.984C35.584 138.752 67.072 167.424 105.728 167.424C114.944 167.424 122.624 161.537 122.624 151.553C122.624 107.521 4.864 113.665 4.864 48.6405C4.864 15.872 35.328 0 73.984 0C102.4 0 125.184 12.032 133.888 17.92L114.432 56.5765C97.28 37.3765 71.168 12.032 37.888 12.032C25.6 12.032 19.968 20.4805 19.968 28.9285C19.968 75.7765 138.24 66.0485 138.24 132.096C138.24 163.84 109.568 179.201 71.168 179.201Z" fill="#657E66"/>
</svg>
